<?xml version="1.0" encoding="UTF-8" standalone="no"?>
<!DOCTYPE svg PUBLIC "-//W3C//DTD SVG 1.1//EN" "http://www.w3.org/Graphics/SVG/1.1/DTD/svg11.dtd">
<svg version="1.1" xmlns="http://www.w3.org/2000/svg" xmlns:xlink="http://www.w3.org/1999/xlink" preserveAspectRatio="xMidYMid meet" viewBox="0 0 640 640" width="640" height="640"><defs><path d="M539.79 455.12C511.02 489.3 493.04 510.67 485.85 519.21C466.48 542.22 428.95 528.53 428.95 498.46C428.95 475.12 428.95 416.77 428.95 323.42C428.95 228.41 428.95 169.04 428.95 145.29C428.95 116.27 465.17 103.06 483.85 125.26C491.31 134.12 509.96 156.27 539.79 191.71C588.89 250.06 619.57 286.52 631.85 301.11C642.7 314 642.7 332.83 631.85 345.73C619.57 360.31 588.89 396.78 539.79 455.12Z" id="aWea8rdrl"></path><clipPath id="clipef46jEYOL"><use xlink:href="#aWea8rdrl" opacity="1"></use></clipPath><path d="M320.65 60C341.11 60 357.7 76.59 357.7 97.05C357.7 193.64 357.7 446.36 357.7 542.95C357.7 563.41 341.11 580 320.65 580C313.24 580 328.06 580 320.65 580C300.18 580 283.59 563.41 283.59 542.95C283.59 446.36 283.59 193.64 283.59 97.05C283.59 76.59 300.18 60 320.65 60C328.06 60 313.24 60 320.65 60Z" id="b1DLBwwN1"></path><path d="M101.69 186.18C130.67 151.26 148.79 129.44 156.03 120.71C175.09 97.76 212.41 111.24 212.41 141.07C212.41 164.87 212.41 224.37 212.41 319.57C212.41 416.41 212.41 476.94 212.41 501.16C212.41 529.94 176.39 542.94 158.01 520.8C150.5 511.75 131.72 489.14 101.69 452.96C52.56 393.77 21.85 356.78 9.57 341.98C-1.22 328.99 -1.22 310.15 9.57 297.16C21.85 282.36 52.56 245.37 101.69 186.18Z" id="c27pXlBimC"></path><clipPath id="clipc2FALy0ce"><use xlink:href="#c27pXlBimC" opacity="1"></use></clipPath></defs><g><g><g><g clip-path="url(#clipef46jEYOL)"><use xlink:href="#aWea8rdrl" opacity="1" fill-opacity="0" stroke="#ffffff" stroke-width="40" stroke-opacity="1"></use></g></g><g><g><use xlink:href="#b1DLBwwN1" opacity="1" fill-opacity="0" stroke="#ffffff" stroke-width="20" stroke-opacity="1"></use></g></g><g><g clip-path="url(#clipc2FALy0ce)"><use xlink:href="#c27pXlBimC" opacity="1" fill-opacity="0" stroke="#ffffff" stroke-width="40" stroke-opacity="1"></use></g></g></g></g></svg>