<?xml version="1.0" encoding="UTF-8" standalone="no"?>
<!DOCTYPE svg PUBLIC "-//W3C//DTD SVG 1.1//EN" "http://www.w3.org/Graphics/SVG/1.1/DTD/svg11.dtd">
<svg version="1.1" xmlns="http://www.w3.org/2000/svg" xmlns:xlink="http://www.w3.org/1999/xlink" preserveAspectRatio="xMidYMid meet" viewBox="0 0 640 640" width="20" height="20"><defs><path d="M539.23 455.12C510.46 489.3 492.48 510.67 485.28 519.21C465.92 542.22 428.39 528.53 428.39 498.46C428.39 475.12 428.39 416.77 428.39 323.42C428.39 228.41 428.39 169.04 428.39 145.29C428.39 116.27 464.61 103.06 483.29 125.26C490.75 134.12 509.39 156.27 539.23 191.71C588.33 250.06 619.01 286.52 631.29 301.11C642.14 314 642.14 332.83 631.29 345.73C619.01 360.31 588.33 396.78 539.23 455.12Z" id="cvcoJoFjT"></path><path d="M320.08 60C340.55 60 357.14 76.59 357.14 97.05C357.14 193.64 357.14 446.36 357.14 542.95C357.14 563.41 340.55 580 320.08 580C312.67 580 327.49 580 320.08 580C299.62 580 283.03 563.41 283.03 542.95C283.03 446.36 283.03 193.64 283.03 97.05C283.03 76.59 299.62 60 320.08 60C327.49 60 312.67 60 320.08 60Z" id="fGOXmVmay"></path><path d="M100.83 186.18C129.81 151.26 147.93 129.44 155.17 120.71C174.23 97.76 211.55 111.24 211.55 141.07C211.55 164.87 211.55 224.37 211.55 319.57C211.55 416.41 211.55 476.94 211.55 501.16C211.55 529.94 175.53 542.94 157.15 520.8C149.64 511.75 130.86 489.14 100.83 452.96C51.7 393.77 20.99 356.78 8.71 341.98C-2.08 328.99 -2.08 310.15 8.71 297.16C20.99 282.36 51.7 245.37 100.83 186.18Z" id="fFwta4Qnk"></path></defs><g><g><g><use xlink:href="#cvcoJoFjT" opacity="1" fill="#ffffff" fill-opacity="1"></use></g><g><use xlink:href="#fGOXmVmay" opacity="1" fill="#ffffff" fill-opacity="1"></use></g><g><use xlink:href="#fFwta4Qnk" opacity="1" fill="#ffffff" fill-opacity="1"></use></g></g></g></svg>